<svg id="레이어_1" data-name="레이어 1" xmlns="http://www.w3.org/2000/svg" viewBox="0 0 500 489.89"><defs><style>.cls-1{fill:#fff;stroke-miterlimit:10;}.cls-1,.cls-2{stroke:#ff9d6c;stroke-width:40.17px;}.cls-2{fill:none;stroke-linecap:round;stroke-linejoin:round;}</style></defs><circle class="cls-1" cx="289.99" cy="265.02" r="50.66"/><circle class="cls-1" cx="370.24" cy="419.14" r="50.66"/><path class="cls-2" d="M163.06,31.78C124.87,26,80.78,25.46,55.75,44.91,25.3,68.56,20.08,105.59,20.08,144.68c0,41,7.21,79.63,40.35,103.25,24.35,17.36,63.61,17.5,102.63,11.65" transform="translate(0 -5.27)"/><path class="cls-2" d="M237,25.36V90.17c0,39.93,24.34,64.27,64.27,64.27H343" transform="translate(0 -5.27)"/><path class="cls-2" d="M410.26,205.18v49.11c0,30.83,18.78,55.81,49.61,55.81H474" transform="translate(0 -5.27)"/><line class="cls-2" x1="479.92" y1="199.91" x2="479.92" y2="379.29"/></svg>